<?xml version="1.0" encoding="UTF-8" standalone="no"?>
<!-- Created with Inkscape (http://www.inkscape.org/) -->

<svg
   width="283.4639mm"
   height="49.229027mm"
   viewBox="0 0 283.4639 49.229027"
   version="1.1"
   id="svg5"
   xml:space="preserve"
   inkscape:version="1.2.2 (b0a8486541, 2022-12-01)"
   sodipodi:docname="logo.svg"
   inkscape:export-filename="../../../Documents/ubiquitousneuralnetworks-logo.png"
   inkscape:export-xdpi="96"
   inkscape:export-ydpi="96"
   xmlns:inkscape="http://www.inkscape.org/namespaces/inkscape"
   xmlns:sodipodi="http://sodipodi.sourceforge.net/DTD/sodipodi-0.dtd"
   xmlns="http://www.w3.org/2000/svg"
   xmlns:svg="http://www.w3.org/2000/svg"><sodipodi:namedview
     id="namedview7"
     pagecolor="#ffffff"
     bordercolor="#000000"
     borderopacity="0.25"
     inkscape:showpageshadow="2"
     inkscape:pageopacity="0.0"
     inkscape:pagecheckerboard="0"
     inkscape:deskcolor="#d1d1d1"
     inkscape:document-units="mm"
     showgrid="false"
     showguides="true"
     inkscape:zoom="1.0544998"
     inkscape:cx="306.30636"
     inkscape:cy="107.63397"
     inkscape:window-width="1920"
     inkscape:window-height="1012"
     inkscape:window-x="1920"
     inkscape:window-y="38"
     inkscape:window-maximized="1"
     inkscape:current-layer="layer1" /><defs
     id="defs2" /><g
     inkscape:label="Layer 1"
     inkscape:groupmode="layer"
     id="layer1"
     transform="translate(-7.2750921,-74.820013)"><g
       id="g350"><rect
         style="fill:#ffffff;stroke-width:0.327882"
         id="rect184"
         width="283.4639"
         height="49.229027"
         x="7.2750921"
         y="74.820015" /><g
         id="SVGRepo_bgCarrier"
         stroke-width="0"
         transform="matrix(0.08908045,0,0,0.08908045,201.36137,89.733926)"
         style="fill:#e6e6e6;stroke:#000000;stroke-width:0;stroke-dasharray:none"><g
           id="g594"
           style="fill:#e6e6e6;stroke-width:0;stroke-dasharray:none"><rect
             x="-26"
             y="-26"
             width="312"
             height="312"
             rx="156"
             fill="#7ed0ec"
             strokewidth="0"
             id="rect526"
             style="fill:#e6e6e6;stroke-width:0;stroke-dasharray:none" /></g></g><g
         id="SVGRepo_iconCarrier"
         transform="matrix(0.08908045,0,0,0.08908045,201.36137,89.733926)"
         style="fill:#ffffff;stroke:#000000;stroke-width:0;stroke-dasharray:none"> <path
   d="m 255.413,147.195 c -5.044,-2.812 -15.403,-9.266 -23.638,-16.198 8.415,-5.436 18.043,-10.489 20.078,-11.392 2.528,-1.122 3.668,-4.081 2.547,-6.609 -1.123,-2.529 -4.081,-3.67 -6.609,-2.547 -3.014,1.338 -17.239,8.867 -26.895,15.837 H 203.68 c -5.669,0 -11.276,-1.181 -16.463,-3.468 -14.435,-6.365 -23.085,-21.346 -21.379,-37.03 0.626,-5.76 2.483,-11.318 5.444,-16.298 l 5.704,-9.594 c 14.034,-1.87 27.56,-7.069 39.22,-15.105 2.187,-1.507 3.064,-4.438 1.751,-6.748 -1.476,-2.596 -4.82,-3.314 -7.217,-1.651 -6,4.165 -15.134,9.22 -26.952,12.064 l 8.453,-14.217 c 1.337,-2.248 0.891,-5.234 -1.218,-6.782 -2.419,-1.775 -5.779,-1.048 -7.278,1.471 l -21.544,36.233 c -2.826,4.753 -6.582,8.886 -11.044,12.152 -12.729,9.318 -30.028,9.318 -42.757,0 -4.61,-3.375 -8.446,-7.697 -11.248,-12.677 L 86.467,45.651 C 88.342,34.01 85.874,13.511 83.586,5.675 82.83,3.088 80.2,1.388 77.577,2.008 c -2.835,0.67 -4.479,3.575 -3.651,6.322 1.982,6.574 3.743,22.643 3.016,32.538 -7.472,-2.106 -14.741,-5.206 -19.164,-8.224 -2.13,-1.453 -5.075,-1.237 -6.769,0.707 -1.997,2.293 -1.517,5.741 0.913,7.423 6,4.154 19.198,9.099 26.341,10.724 l 10.362,18.411 c 2.755,4.894 4.488,10.297 5.096,15.88 v 0 c 1.706,15.683 -6.944,30.665 -21.379,37.03 -5.187,2.287 -10.794,3.468 -16.463,3.468 H 43.376 C 34.993,114.301 32.277,110.191 32.25,110.149 c -1.523,-2.309 -4.628,-2.949 -6.938,-1.427 -2.31,1.522 -2.949,4.627 -1.428,6.936 0.095,0.144 1.931,2.924 7.281,10.628 H 7.224 c -2.616,0 -4.952,1.912 -5.2,4.517 -0.285,2.987 2.056,5.5 4.985,5.5 h 22.769 c -5.411,5.665 -12.411,12.135 -18.617,16.614 -1.999,1.443 -2.609,4.147 -1.37,6.279 l 0.093,0.16 c 1.508,2.597 4.89,3.312 7.291,1.566 9.494,-6.904 20.299,-17.645 26.014,-24.619 h 12.703 c 5.665,0 11.269,1.18 16.452,3.466 14.434,6.364 23.084,21.345 21.378,37.028 v 0 c -0.609,5.598 -2.342,11.016 -5.096,15.929 l -9.924,17.7 c -16.216,2.254 -31.256,11.813 -31.922,12.241 -2.327,1.496 -2.958,4.567 -1.506,6.921 1.883,3.054 5.574,2.321 6.921,1.506 0.781,-0.472 9.107,-5.791 19.967,-9.002 l -1.946,3.581 c -1.32,2.38 -0.5,5.379 1.847,6.757 v 0 c 2.425,1.424 5.547,0.575 6.917,-1.881 l 7.215,-13.006 c 0,0 0,0 0,0 l 10.998,-19.617 c 2.787,-4.971 6.61,-9.287 11.208,-12.653 12.729,-9.319 30.028,-9.319 42.757,0 5.314,3.89 9.633,8.98 12.607,14.855 l 15.312,30.251 c 1.252,2.467 4.267,3.451 6.733,2.199 2.466,-1.252 3.451,-4.266 2.199,-6.733 l -8.87,-17.583 c 7.174,1.609 16.973,4.753 24.166,10.444 2.274,1.799 5.543,0.929 7.04,-0.775 1.825,-2.079 1.384,-5.311 -0.775,-7.04 -12.063,-9.671 -29.382,-12.922 -36.132,-13.862 l -3.826,-7.537 c -2.014,-3.969 -3.293,-8.27 -3.775,-12.694 -1.706,-15.683 6.943,-30.664 21.378,-37.028 v 0 c 5.184,-2.286 10.787,-3.466 16.453,-3.466 h 18.958 c 9.23,8.339 22.01,16.333 27.908,19.641 2.37,1.329 5.57,0.216 6.814,-1.936 1.385,-2.395 0.481,-5.467 -1.935,-6.814 z m -142.328,-1.988 c -9.22,0 -16.695,-6.229 -16.695,-13.912 0,-7.683 7.474,-13.912 16.695,-13.912 9.22,0 16.695,6.229 16.695,13.912 0,7.683 -7.475,13.912 -16.695,13.912 z"
   id="path530"
   style="fill:#ffffff;stroke-width:0;stroke-dasharray:none" /> </g><path
         d="m 30.219306,87.273599 q 0,0.584161 -0.322019,1.057797 -0.322017,0.465756 -0.987522,0.74204 -0.65477,0.268403 -1.674494,0.268403 -1.427614,0 -2.17899,-0.568373 -0.740642,-0.576262 -0.740642,-1.515655 v -3.631264 h 0.966055 v 3.654942 q 0,0.686786 0.493761,1.065695 0.504495,0.378918 1.513485,0.378918 0.697707,0 1.127064,-0.181565 0.440092,-0.189454 0.644037,-0.51311 0.203944,-0.331555 0.203944,-0.757828 v -3.647052 h 0.955321 z"
         id="path290"
         style="font-size:9.20512px;font-family:Rubik;-inkscape-font-specification:Rubik;stroke-width:0.345192" /><path
         d="m 33.053076,84.723819 q 0,0.268397 -0.02147,0.505219 -0.01073,0.228928 -0.03221,0.363127 h 0.05367 q 0.246881,-0.268398 0.676238,-0.449961 0.429357,-0.181563 1.105596,-0.181563 1.073394,0 1.71743,0.552583 0.65477,0.54469 0.65477,1.634072 0,0.726252 -0.30055,1.215676 -0.289816,0.489433 -0.826513,0.73415 -0.536697,0.244717 -1.245137,0.244717 -0.676239,0 -1.105596,-0.181565 -0.429357,-0.181565 -0.676238,-0.434172 h -0.07514 l -0.19321,0.536797 H 32.108484 V 83.26342 h 0.944587 z m 1.620824,0.813087 q -0.611834,0 -0.966054,0.173669 -0.35422,0.165774 -0.504495,0.521006 -0.150275,0.347342 -0.150275,0.892029 v 0.03156 q 0,0.781513 0.343486,1.199896 0.35422,0.410486 1.298806,0.410486 0.772844,0 1.148532,-0.418384 0.386422,-0.418383 0.386422,-1.207786 0,-0.797302 -0.386422,-1.199897 -0.375688,-0.402595 -1.17,-0.402595 z"
         id="path292"
         style="font-size:9.20512px;font-family:Rubik;-inkscape-font-specification:Rubik;stroke-width:0.345192" /><path
         d="m 39.654446,85.031687 v 4.231212 h -0.944587 v -4.231212 z m -0.46156,-1.586704 q 0.21468,0 0.375689,0.110517 0.171743,0.102622 0.171743,0.33155 0,0.221033 -0.171743,0.33155 -0.161009,0.110516 -0.375689,0.110516 -0.236146,0 -0.397155,-0.110516 -0.16101,-0.110517 -0.16101,-0.33155 0,-0.228928 0.16101,-0.33155 0.161009,-0.110517 0.397155,-0.110517 z"
         id="path294"
         style="font-size:9.20512px;font-family:Rubik;-inkscape-font-specification:Rubik;stroke-width:0.345192" /><path
         d="m 45.311225,89.349728 q 0,-0.142091 0.01073,-0.331545 0.01073,-0.189455 0.04293,-0.323656 h -0.0644 q -0.246881,0.268394 -0.686973,0.457857 -0.429358,0.189455 -1.116329,0.189455 -1.041193,0 -1.695963,-0.544687 -0.644036,-0.552585 -0.644036,-1.641966 0,-0.726252 0.30055,-1.215685 0.30055,-0.48943 0.837247,-0.734145 0.536697,-0.252609 1.234403,-0.252609 0.676239,0 1.105596,0.189457 0.429358,0.189457 0.686972,0.465749 h 0.04293 l 0.139541,-0.576266 h 0.751376 v 6.125785 h -0.944587 z m -1.631558,-0.58416 q 0.590366,0 0.944586,-0.157879 0.364954,-0.157879 0.525963,-0.481535 0.161009,-0.331546 0.171743,-0.820979 v -0.142091 q 0,-0.8052 -0.364954,-1.215685 -0.364954,-0.418387 -1.298806,-0.418387 -0.772844,0 -1.148532,0.449963 -0.375688,0.442061 -0.375688,1.191999 0,0.749937 0.375688,1.17621 0.386422,0.418384 1.17,0.418384 z"
         id="path296"
         style="font-size:9.20512px;font-family:Rubik;-inkscape-font-specification:Rubik;stroke-width:0.345192" /><path
         d="m 52.889383,85.031687 v 4.231212 h -0.772844 l -0.13954,-0.560483 h -0.04293 q -0.182477,0.221039 -0.472293,0.36313 -0.289817,0.142091 -0.633303,0.205243 -0.343486,0.07101 -0.719174,0.07101 -0.686972,0 -1.159265,-0.157879 -0.461559,-0.165777 -0.697707,-0.505221 -0.236145,-0.339444 -0.236145,-0.876241 v -2.770811 h 0.955319 v 2.723447 q 0,0.505221 0.311285,0.757828 0.311284,0.252606 0.966055,0.252606 0.644036,0 1.00899,-0.173667 0.375688,-0.181565 0.525963,-0.521009 0.161009,-0.347333 0.161009,-0.836767 v -2.202438 z"
         id="path298"
         style="font-size:9.20512px;font-family:Rubik;-inkscape-font-specification:Rubik;stroke-width:0.345192" /><path
         d="m 55.658742,85.031687 v 4.231212 h -0.944586 v -4.231212 z m -0.461559,-1.586704 q 0.214679,0 0.375688,0.110517 0.171743,0.102622 0.171743,0.33155 0,0.221033 -0.171743,0.33155 -0.161009,0.110516 -0.375688,0.110516 -0.236146,0 -0.397155,-0.110516 -0.16101,-0.110517 -0.16101,-0.33155 0,-0.228928 0.16101,-0.33155 0.161009,-0.110517 0.397155,-0.110517 z"
         id="path300"
         style="font-size:9.20512px;font-family:Rubik;-inkscape-font-specification:Rubik;stroke-width:0.345192" /><path
         d="m 59.404879,88.773466 q 0.214679,0 0.440092,-0.02367 0.225413,-0.03156 0.364953,-0.06312 v 0.528907 q -0.150274,0.05523 -0.429356,0.08683 -0.279083,0.03945 -0.536697,0.03945 -0.450826,0 -0.837248,-0.110515 -0.375688,-0.118413 -0.611835,-0.402595 -0.236146,-0.284191 -0.236146,-0.797302 v -2.462944 h -0.815779 v -0.33155 l 0.826513,-0.276292 0.375688,-0.899921 h 0.558164 v 0.970968 h 1.663761 v 0.536795 h -1.663761 v 2.447156 q 0,0.386808 0.246881,0.576263 0.257615,0.181565 0.65477,0.181565 z"
         id="path302"
         style="font-size:9.20512px;font-family:Rubik;-inkscape-font-specification:Rubik;stroke-width:0.345192" /><path
         d="m 66.360473,87.139398 q 0,0.528898 -0.193211,0.939392 -0.182476,0.402596 -0.536697,0.686778 -0.343486,0.28419 -0.84798,0.43418 -0.493762,0.142091 -1.105597,0.142091 -0.568898,0 -1.051925,-0.142091 -0.483028,-0.14999 -0.837248,-0.43418 -0.35422,-0.284182 -0.558164,-0.686778 -0.193211,-0.410494 -0.193211,-0.939392 0,-0.702574 0.322018,-1.184109 0.322018,-0.489429 0.923119,-0.742039 0.601101,-0.260503 1.427614,-0.260503 0.783578,0 1.373944,0.260503 0.601101,0.25261 0.933853,0.742039 0.343485,0.481535 0.343485,1.184109 z m -4.347245,0 q 0,0.497323 0.171744,0.868342 0.182476,0.36313 0.558164,0.560483 0.375688,0.197345 0.955321,0.197345 0.579632,0 0.95532,-0.197345 0.375689,-0.197353 0.547432,-0.560483 0.182477,-0.371019 0.182477,-0.868342 0,-0.505221 -0.182477,-0.860453 -0.182478,-0.355232 -0.558166,-0.544687 -0.364954,-0.197352 -0.95532,-0.197352 -0.880183,0 -1.277339,0.426281 -0.397156,0.426273 -0.397156,1.176211 z"
         id="path304"
         style="font-size:9.20512px;font-family:Rubik;-inkscape-font-specification:Rubik;stroke-width:0.345192" /><path
         d="m 72.661289,85.031687 v 4.231212 h -0.772844 l -0.13954,-0.560483 h -0.04294 q -0.182476,0.221039 -0.472293,0.36313 -0.289816,0.142091 -0.633302,0.205243 -0.343486,0.07101 -0.719174,0.07101 -0.686972,0 -1.159265,-0.157879 -0.461559,-0.165777 -0.697707,-0.505221 -0.236145,-0.339444 -0.236145,-0.876241 v -2.770811 h 0.955319 v 2.723447 q 0,0.505221 0.311285,0.757828 0.311284,0.252606 0.966055,0.252606 0.644036,0 1.00899,-0.173667 0.375688,-0.181565 0.525963,-0.521009 0.161009,-0.347333 0.161009,-0.836767 v -2.202438 z"
         id="path306"
         style="font-size:9.20512px;font-family:Rubik;-inkscape-font-specification:Rubik;stroke-width:0.345192" /><path
         d="m 78.232207,88.094578 q 0,0.410494 -0.279082,0.686786 -0.279084,0.276284 -0.794312,0.418384 -0.515229,0.142091 -1.223669,0.142091 -0.601101,0 -1.041193,-0.07101 -0.429357,-0.07101 -0.762109,-0.197353 v -0.631524 q 0.343486,0.126311 0.826513,0.236827 0.493762,0.102625 0.998256,0.102625 0.719174,0 1.041193,-0.165777 0.322018,-0.173675 0.322018,-0.457857 0,-0.157879 -0.118074,-0.284182 -0.118073,-0.126312 -0.429357,-0.252615 -0.30055,-0.126303 -0.869449,-0.284182 -0.558165,-0.157879 -0.955321,-0.315767 -0.397155,-0.157879 -0.611834,-0.378909 -0.214679,-0.221039 -0.214679,-0.568373 0,-0.536796 0.590366,-0.828876 0.601101,-0.292079 1.567156,-0.292079 0.525963,0 0.976788,0.07894 0.46156,0.07105 0.858715,0.205245 l -0.322018,0.552581 q -0.364953,-0.110514 -0.76211,-0.189454 -0.397155,-0.07894 -0.815779,-0.07894 -0.579632,0 -0.890917,0.142093 -0.30055,0.134199 -0.30055,0.371017 0,0.173676 0.139541,0.299979 0.139541,0.118405 0.46156,0.236818 0.332751,0.110515 0.880182,0.268403 0.547432,0.14998 0.933853,0.307868 0.386422,0.157879 0.590366,0.386808 0.203946,0.22103 0.203946,0.560474 z"
         id="path308"
         style="font-size:9.20512px;font-family:Rubik;-inkscape-font-specification:Rubik;stroke-width:0.345192" /><path
         d="m 36.655415,100.9656 -0.764803,-1.30567 v -8.119299 h 0.764803 z m 1.529605,2.5894 -0.764802,-1.32761 V 91.540631 h 0.764802 z m 1.529605,2.62232 -0.764803,-1.33859 V 91.540631 h 0.764803 z m -10.96217,-5.89199 0.764802,1.30569 v 8.11928 h -0.764802 z m -1.529607,-2.589392 0.764803,1.327606 V 109.7103 h -0.764803 z m -1.529605,-2.622307 0.764803,1.338582 V 109.7103 h -0.764803 z m 0.265557,-3.533 h 0.89227 L 37.66453,109.7103 h -0.892271 z m 1.805785,0 h 0.90289 L 39.470313,109.7103 h -0.913514 z m 1.795161,0 h 0.892269 L 40.479428,108.42659 V 91.540631 H 41.24423 V 109.7103 q 0,0 -0.902891,0 z M 24.92844,92.824356 V 109.7103 H 24.163638 V 91.540631 q 0,0 0.913515,0 L 35.858745,109.7103 h -0.881647 z"
         style="font-size:19.7612px;font-family:Monoton;-inkscape-font-specification:Monoton;stroke-width:0.138186"
         id="path550" /><path
         d="M 47.086473,109.7103 H 46.321671 V 91.540631 h 0.764802 z m -1.529605,0 H 44.792066 V 91.540631 h 0.764802 z m -1.529605,0 H 43.262459 V 91.540631 h 0.764804 z m 4.588815,-3.94993 h 8.136651 v 0.78999 h -8.136651 v 0.78999 h 8.136651 v 0.78998 h -8.136651 v 0.78999 h 8.136651 v 0.78998 H 47.851275 V 91.540631 h 8.901454 v 0.789981 h -8.136651 v 0.789991 h 8.136651 v 0.789981 h -8.136651 v 0.789991 h 8.136651 v 0.789981 h -8.136651 v 3.159955 h 4.174547 v 0.78998 h -4.174547 v 0.789989 h 4.174547 v 0.78998 h -4.174547 v 0.78999 h 4.174547 v 0.78999 h -4.174547 z"
         style="font-size:19.7612px;font-family:Monoton;-inkscape-font-specification:Monoton;stroke-width:0.138186"
         id="path552" /><path
         d="M 71.018423,101.72267 V 91.540631 h 0.764802 v 10.182039 q 0,1.66776 -1.27467,2.85273 -1.274671,1.18497 -3.059211,1.18497 -1.784539,0 -3.059211,-1.18497 -1.274671,-1.18497 -1.274671,-2.85273 V 91.540631 h 0.764803 v 10.182039 q 0,1.33858 1.040981,2.29316 1.051605,0.95456 2.528098,0.95456 1.476494,0 2.517476,-0.95456 1.051603,-0.95458 1.051603,-2.29316 z m 1.529605,0 V 91.540631 h 0.764803 v 10.182039 q 0,1.14108 -0.467379,2.18343 -0.467379,1.03138 -1.253427,1.78845 -0.786048,0.75706 -1.869517,1.20691 -1.08347,0.43889 -2.273164,0.43889 -1.189693,0 -2.273163,-0.43889 -1.083471,-0.44985 -1.869517,-1.20691 -0.786048,-0.75707 -1.253427,-1.78845 -0.467379,-1.04235 -0.467379,-2.18343 V 91.540631 h 0.764802 v 10.182039 q 0,1.30568 0.679824,2.42482 0.690448,1.10818 1.858895,1.75552 1.179071,0.64735 2.559965,0.64735 1.380894,0 2.549342,-0.64735 1.179071,-0.64734 1.858896,-1.75552 0.690446,-1.11914 0.690446,-2.42482 z m 1.529607,0 V 91.540631 h 0.764802 v 10.182039 q 0,1.45927 -0.594847,2.79787 -0.584223,1.32762 -1.572094,2.29315 -0.98787,0.96554 -2.358142,1.53608 -1.370271,0.57055 -2.86801,0.57055 -1.497738,0 -2.86801,-0.57055 -1.370271,-0.57054 -2.358142,-1.53608 -0.98787,-0.96553 -1.582716,-2.29315 -0.584224,-1.3386 -0.584224,-2.79787 V 91.540631 h 0.764802 v 10.182039 q 0,1.73358 0.89227,3.21481 0.892269,1.47025 2.411253,2.33704 1.529605,0.85581 3.324767,0.85581 1.795162,0 3.314144,-0.85581 1.529607,-0.86679 2.421876,-2.33704 0.892271,-1.48123 0.892271,-3.21481 z m 1.529605,0 V 91.540631 h 0.764803 v 10.182039 q 0,2.36995 -1.200317,4.39978 -1.200315,2.01886 -3.261032,3.20385 -2.050097,1.174 -4.46135,1.174 -2.411252,0 -4.471971,-1.174 -2.050096,-1.18499 -3.250411,-3.20385 -1.200316,-2.02983 -1.200316,-4.39978 V 91.540631 h 0.764803 v 10.182039 q 0,1.61289 0.647957,3.09411 0.647959,1.48124 1.742051,2.55649 1.094094,1.06428 2.602454,1.70066 1.518982,0.63637 3.165433,0.63637 1.646451,0 3.154811,-0.63637 1.518983,-0.63638 2.613076,-1.70066 1.094093,-1.07525 1.742049,-2.55649 0.64796,-1.48122 0.64796,-3.09411 z"
         style="font-size:19.7612px;font-family:Monoton;-inkscape-font-specification:Monoton;stroke-width:0.138186"
         id="path554" /><path
         d="m 84.105047,100.66936 h 4.61006 q 1.05161,0 1.773923,-0.702219 0.732931,-0.702207 0.732931,-1.996897 0,-0.954573 -0.764807,-1.711648 -0.764806,-0.76804 -1.742047,-0.76804 H 82.150551 V 109.7103 H 81.385748 V 94.700575 h 7.329359 q 1.295909,0 2.283779,0.998454 0.987881,0.987479 0.987881,2.271215 0,1.579972 -0.956005,2.534536 -0.956006,0.95457 -2.315655,0.95457 h -4.61006 z m 0,1.57997 h 4.61006 q 1.657071,0 2.846769,-1.19596 1.189686,-1.206918 1.189686,-3.083126 0,-1.612899 -1.221562,-2.830792 -1.210933,-1.228868 -2.814893,-1.228868 H 80.620945 V 109.7103 H 79.856143 V 93.120603 h 8.858964 q 1.264056,0 2.368755,0.669291 1.115339,0.669291 1.773923,1.799411 0.658584,1.119154 0.658584,2.380939 0,2.161486 -1.42339,3.620776 -1.41275,1.4483 -3.377872,1.4483 h -4.61006 z m 0,1.57997 h 4.61006 q 1.487119,0 2.761793,-0.75707 1.274662,-0.75707 2.039469,-2.10663 0.764806,-1.360538 0.764806,-2.995356 0,-1.481234 -0.764806,-2.775935 Q 92.762191,93.888643 91.4769,93.109627 90.191608,92.330612 88.715107,92.330612 H 79.091341 V 109.7103 H 78.326538 V 91.540631 h 10.388569 q 1.6677,0 3.133561,0.88873 1.465873,0.877764 2.326284,2.369963 0.871019,1.481223 0.871019,3.17092 0,1.953005 -0.817907,3.434236 -0.8073,1.48123 -2.198815,2.31511 L 94.005,109.7103 h -0.8073 l -1.890763,-5.61768 q -0.424892,0.17556 -0.647955,0.24139 l 1.773912,5.37629 h -0.807289 l -1.73143,-5.18976 q -0.09555,0.0219 -0.679819,0.0768 l 1.646443,5.11296 H 90.05351 l -1.625207,-5.09101 h -0.690448 l 1.550859,5.09101 h -0.8073 l -1.561465,-5.09101 h -2.814902 z m -0.42489,5.881 H 82.915353 V 96.280547 h 5.799754 q 0.711695,0 1.221562,0.50471 0.520485,0.493744 0.520485,1.184987 0,1.909124 -1.742047,1.909124 h -4.61006 v -0.78998 h 4.61006 q 0.456756,0 0.711695,-0.24139 0.265546,-0.252355 0.265546,-0.877754 0,-0.384031 -0.286793,-0.636386 -0.276186,-0.263319 -0.690448,-0.263319 h -5.03495 z"
         style="font-size:19.7612px;font-family:Monoton;-inkscape-font-specification:Monoton;stroke-width:0.138186"
         id="path556" /><path
         d="m 104.27672,104.37791 0.30805,-0.79 h 2.61307 l 0.30805,0.79 z m -0.59485,1.57997 0.29742,-0.78998 h 3.8134 l 0.32928,0.78998 z m -0.59484,1.57997 0.29742,-0.78998 h 5.01371 l 0.31867,0.78998 z m -6.214014,2.17245 H 96.04447 l 6.95758,-18.169669 h 0.82854 l 6.94695,18.169669 h -0.81792 l -6.54331,-17.105382 z m 6.638894,-15.229163 0.43552,1.009419 -5.4386,14.219744 h -0.817907 z m 0.84979,2.084681 0.40365,1.086239 -4.59945,12.058243 h -0.828523 z m 0.80729,2.172466 0.40365,1.108168 -3.7709,9.863848 h -0.81792 z m 10.5479,10.972016 h -0.82853 L 107.9414,91.540631 h 0.81791 z m -8.60403,-18.169669 6.95758,18.169669 h -0.81791 l -6.95758,-18.169669 z m -1.64644,0 6.95758,18.169669 h -0.82854 l -6.94697,-18.169669 z"
         style="font-size:19.7612px;font-family:Monoton;-inkscape-font-specification:Monoton;stroke-width:0.138186"
         id="path558" /><path
         d="m 117.05528,91.540631 h 0.76481 V 109.7103 h -0.76481 z m 4.58882,0 h 0.76481 v 14.219739 h 6.11843 v 0.78999 h -6.11843 v 0.78999 h 6.11843 v 0.78998 h -6.11843 v 0.78999 h 6.11843 v 0.78998 h -6.88324 z m -1.5296,0 h 0.7648 V 109.7103 h -0.7648 z m -1.5296,0 h 0.76479 V 109.7103 h -0.76479 z"
         style="font-size:19.7612px;font-family:Monoton;-inkscape-font-specification:Monoton;stroke-width:0.138186"
         id="path560" /><path
         d="m 145.06619,100.9656 -0.7648,-1.30567 v -8.119299 h 0.7648 z m 1.52961,2.5894 -0.76481,-1.32761 V 91.540631 h 0.76481 z m 1.5296,2.62232 -0.7648,-1.33859 V 91.540631 h 0.7648 z m -10.96216,-5.89199 0.76479,1.30569 v 8.11928 h -0.76479 z m -1.52962,-2.589392 0.76481,1.327606 V 109.7103 h -0.76481 z m -1.5296,-2.622307 0.76481,1.338582 V 109.7103 h -0.76481 z m 0.26556,-3.533 h 0.89228 l 10.81345,18.169669 h -0.89227 z m 1.80579,0 h 0.90289 L 147.8811,109.7103 h -0.91352 z m 1.79516,0 h 0.89226 l 10.02742,16.885959 V 91.540631 h 0.7648 V 109.7103 q 0,0 -0.90289,0 z m -4.63131,1.283725 V 109.7103 h -0.7648 V 91.540631 q 0,0 0.91351,0 l 10.7816,18.169669 h -0.88165 z"
         style="font-size:19.7612px;font-family:Monoton;-inkscape-font-specification:Monoton;stroke-width:0.138186"
         id="path562" /><path
         d="m 155.49725,109.7103 h -0.7648 V 91.540631 h 0.7648 z m -1.52961,0 h -0.7648 V 91.540631 h 0.7648 z m -1.52961,0 h -0.76479 V 91.540631 h 0.76479 z m 4.58883,-3.94993 h 8.13664 v 0.78999 h -8.13664 v 0.78999 h 8.13664 v 0.78998 h -8.13664 v 0.78999 h 8.13664 v 0.78998 h -8.90145 V 91.540631 h 8.90145 v 0.789981 h -8.13664 v 0.789991 h 8.13664 v 0.789981 h -8.13664 v 0.789991 h 8.13664 v 0.789981 h -8.13664 v 3.159955 h 4.17453 v 0.78998 h -4.17453 v 0.789989 h 4.17453 v 0.78998 h -4.17453 v 0.78999 h 4.17453 v 0.78999 h -4.17453 z"
         style="font-size:19.7612px;font-family:Monoton;-inkscape-font-specification:Monoton;stroke-width:0.138186"
         id="path564" /><path
         d="m 166.70373,92.330612 v -0.789981 h 11.47205 v 0.789981 z m 0,1.579972 v -0.789981 h 11.47205 v 0.789981 z m 0,1.579972 v -0.789981 h 11.47205 v 0.789981 h -3.05921 V 109.7103 h -0.76481 V 95.490556 h -0.76481 V 109.7103 h -0.76479 V 95.490556 h -0.76481 V 109.7103 h -0.7648 V 95.490556 h -0.7648 V 109.7103 h -0.76481 V 95.490556 Z"
         style="font-size:19.7612px;font-family:Monoton;-inkscape-font-specification:Monoton;stroke-width:0.138186"
         id="path566" /><path
         d="m 184.94216,104.12555 -0.36117,1.55802 -3.63281,-14.142939 h 0.78606 z m 0.79666,-3.03925 -0.39302,1.51414 -2.81489,-11.059809 h 0.77542 z m 0.79668,-3.148983 -0.40365,1.536079 -2.02886,-7.932765 h 0.79667 z m 3.02734,11.772983 h -0.79666 l 4.65254,-18.147728 -0.0112,-0.02193 h 0.80729 v 0.02193 l 2.07134,7.373199 1.90139,-7.39514 h 0.79667 l -4.66316,18.169669 h -0.79651 l -2.08196,-7.36222 z m -1.59333,0 h -0.78606 L 191.836,91.540631 h 0.78605 z m -1.58273,0 h -0.78604 l 4.66317,-18.169669 h 0.77543 z m 12.6936,0 h -0.79667 l 4.65255,-18.169669 h 0.79667 z m -1.59334,0 H 196.701 l 4.65255,-18.169669 h 0.78605 z m -1.58271,0 h -0.78605 l 4.66317,-18.169669 h 0.77542 z m -11.49329,-1.55802 4.25952,-16.611649 h 0.79667 l -4.66316,18.169669 h -0.79667 l -4.65255,-18.169669 h 0.79667 z m 7.43558,-7.35126 2.06072,7.4171 0.40365,-1.569 -2.07134,-7.395162 z m 0.78605,-3.094118 2.07134,7.395148 0.40365,-1.54705 -2.07135,-7.406118 z m 0.78605,-3.072171 2.08196,7.395159 0.39302,-1.55803 -2.06072,-7.417089 z"
         style="font-size:19.7612px;font-family:Monoton;-inkscape-font-specification:Monoton;stroke-width:0.138186"
         id="path568" /><path
         d="m 230.15049,100.66936 h 4.61005 q 1.05161,0 1.77393,-0.702219 0.73293,-0.702207 0.73293,-1.996897 0,-0.954573 -0.76481,-1.711648 -0.7648,-0.76804 -1.74205,-0.76804 H 228.196 V 109.7103 h -0.76481 V 94.700575 h 7.32935 q 1.29592,0 2.28379,0.998454 0.98787,0.987479 0.98787,2.271215 0,1.579972 -0.956,2.534536 -0.956,0.95457 -2.31566,0.95457 h -4.61005 z m 0,1.57997 h 4.61005 q 1.65707,0 2.84677,-1.19596 1.18969,-1.206918 1.18969,-3.083126 0,-1.612899 -1.22156,-2.830792 -1.21093,-1.228868 -2.8149,-1.228868 h -8.09416 V 109.7103 h -0.76479 V 93.120603 h 8.85895 q 1.26406,0 2.36878,0.669291 1.11533,0.669291 1.7739,1.799411 0.65858,1.119154 0.65858,2.380939 0,2.161486 -1.42337,3.620776 -1.41277,1.4483 -3.37789,1.4483 h -4.61005 z m 0,1.57997 h 4.61005 q 1.48712,0 2.7618,-0.75707 1.27466,-0.75707 2.03946,-2.10663 0.76481,-1.360538 0.76481,-2.995356 0,-1.481234 -0.76481,-2.775935 -0.75417,-1.305666 -2.03946,-2.084682 -1.2853,-0.779015 -2.7618,-0.779015 h -9.62376 V 109.7103 h -0.7648 V 91.540631 h 10.38856 q 1.6677,0 3.13358,0.88873 1.46587,0.877764 2.32627,2.369963 0.87103,1.481223 0.87103,3.17092 0,1.953005 -0.81792,3.434236 -0.80729,1.48123 -2.1988,2.31511 l 1.97574,5.99071 h -0.8073 l -1.89076,-5.61768 q -0.4249,0.17556 -0.64796,0.24139 l 1.77392,5.37629 h -0.80729 l -1.73144,-5.18976 q -0.0955,0.0219 -0.67982,0.0768 l 1.64646,5.11296 h -0.80729 l -1.62521,-5.09101 h -0.69046 l 1.55086,5.09101 h -0.8073 l -1.56147,-5.09101 h -2.81489 z m -0.42489,5.881 h -0.76481 V 96.280547 h 5.79975 q 0.7117,0 1.22156,0.50471 0.52049,0.493744 0.52049,1.184987 0,1.909124 -1.74205,1.909124 h -4.61005 v -0.78998 h 4.61005 q 0.45676,0 0.7117,-0.24139 0.26555,-0.252355 0.26555,-0.877754 0,-0.384031 -0.2868,-0.636386 -0.27617,-0.263319 -0.69045,-0.263319 h -5.03494 z"
         style="font-size:19.7612px;font-family:Monoton;-inkscape-font-specification:Monoton;stroke-width:0.138186"
         id="path572" /><path
         d="m 248.08085,109.7103 h -0.7648 V 91.540631 h 0.7648 z m -1.52961,0 h -0.76479 V 91.540631 h 0.76479 z m -1.52959,0 h -0.76481 V 91.540631 h 0.76481 z m -1.5296,0 h -0.76481 V 91.540631 h 0.76481 z m 10.17611,-9.08483 4.49322,-9.084839 h 0.84978 l -4.49322,9.084839 4.49322,9.08483 h -0.84978 z m -1.71017,0 4.4932,-9.084839 h 0.84979 l -4.49322,9.084839 4.49322,9.08483 h -0.84979 z m -1.7102,0 4.49321,-9.084839 h 0.84979 l -4.49322,9.084839 4.49322,9.08483 H 254.741 Z m -1.72081,0 4.50385,-9.084839 h 0.84977 l -4.50384,9.084839 4.50384,9.08483 h -0.84977 z"
         style="font-size:19.7612px;font-family:Monoton;-inkscape-font-specification:Monoton;stroke-width:0.138186"
         id="path574" /><path
         d="m 267.58332,98.650511 h -1.28529 q -0.8179,0 -1.17907,-0.427912 -0.36116,-0.438888 -0.36116,-1.15206 0,-1.579983 2.28378,-1.579983 2.14572,0 3.22918,0.658326 l -0.6161,0.482769 q -0.74355,-0.351104 -2.61308,-0.351104 -0.9135,0 -1.23217,0.208463 -0.30805,0.208474 -0.30805,0.581529 0,0.373033 0.16996,0.581518 0.16995,0.208462 0.62671,0.208462 h 1.31716 q 1.43401,0 2.58121,0.50471 1.15783,0.50472 1.90138,1.382474 0.74356,0.866787 1.13658,2.007887 0.39304,1.13012 0.39304,2.42481 0,1.05332 -0.28682,1.99692 -0.28679,0.94358 -0.87102,1.73357 -0.57359,0.78998 -1.39151,1.37151 -0.80729,0.57054 -1.93325,0.88873 -1.11534,0.32917 -2.42188,0.32917 -2.05009,0 -3.84525,-0.64736 -1.78454,-0.63637 -2.97424,-1.78843 l 0.61609,-0.4718 q 1.08347,1.00943 2.70868,1.56899 1.63582,0.5486 3.49472,0.5486 1.45526,0 2.6237,-0.4279 1.17907,-0.43888 1.93324,-1.19595 0.76481,-0.75707 1.16847,-1.75553 0.41426,-0.99845 0.41426,-2.15052 0,-1.52511 -0.59486,-2.75398 -0.59483,-1.23983 -1.81639,-2.007869 -1.21094,-0.76804 -2.86802,-0.76804 z m -1.28529,0.78998 h 1.21094 q 2.15632,0 3.36725,1.360529 1.22156,1.36053 1.22156,3.37938 0,2.05177 -1.41276,3.40133 -1.41275,1.33859 -3.9621,1.33859 -1.69956,0 -3.17606,-0.48277 -1.47649,-0.48276 -2.45373,-1.36053 l 0.59484,-0.49374 q 0.87102,0.73513 2.18818,1.14109 1.32779,0.40596 2.84677,0.40596 2.2413,0 3.42037,-1.10817 1.1897,-1.10817 1.1897,-2.84176 0,-1.71163 -0.9985,-2.83077 -0.98787,-1.11915 -2.83614,-1.11915 h -1.20032 q -1.55086,0 -2.32628,-0.877773 -0.77541,-0.877765 -0.77541,-2.282168 0,-1.404426 0.956,-2.282191 0.96662,-0.877764 2.88924,-0.877764 1.34903,0 2.50685,0.329163 1.15784,0.318187 1.91203,0.921657 l -0.60549,0.482757 q -1.32778,-0.943586 -3.81339,-0.943586 -1.60395,0 -2.34751,0.658315 -0.73293,0.647351 -0.73293,1.711649 0,1.075251 0.54173,1.722591 0.55236,0.647361 1.79516,0.647361 z m 0,1.579969 h 1.16844 q 1.55086,0 2.32629,0.88874 0.77542,0.88873 0.77542,2.2712 0,1.40442 -0.96662,2.28219 -0.95601,0.87776 -2.87864,0.87776 -1.34902,0 -2.51748,-0.31819 -1.15782,-0.32916 -1.912,-0.93262 l 0.60546,-0.48277 q 1.32779,0.94359 3.82402,0.94359 1.60395,0 2.33691,-0.64735 0.74354,-0.65832 0.74354,-1.72261 0,-1.06428 -0.55235,-1.71163 -0.55236,-0.65832 -1.79517,-0.65832 h -1.15782 q -2.17757,0 -3.40975,-1.33859 -1.22155,-1.349556 -1.22155,-3.401321 0,-2.051776 1.41276,-3.39037 1.41277,-1.349557 3.96209,-1.349557 1.69958,0 3.16544,0.48278 1.4765,0.482757 2.45375,1.360533 l -0.59485,0.493734 q -0.87103,-0.735124 -2.18819,-1.141095 -1.31717,-0.405961 -2.83615,-0.405961 -2.24128,0 -3.43098,1.108168 -1.17907,1.108179 -1.17907,2.841768 0,1.722591 0.99849,2.841745 0.9985,1.108176 2.86801,1.108176 z m 0,1.57998 h 1.16844 q 0.81792,0 1.17908,0.43888 0.36115,0.43888 0.36115,1.14108 0,1.57997 -2.28378,1.57997 -2.15632,0 -3.23979,-0.65832 l 0.61609,-0.48275 q 0.74356,0.35109 2.6237,0.35109 0.91352,0 1.22157,-0.20846 0.31865,-0.20848 0.31865,-0.58153 0,-0.36207 -0.18057,-0.57053 -0.16996,-0.21944 -0.63733,-0.21944 h -1.14721 q -1.46587,0 -2.65556,-0.49375 -1.17908,-0.49374 -1.94388,-1.36053 -0.75418,-0.86679 -1.15783,-2.007886 -0.40364,-1.141095 -0.40364,-2.457725 0,-1.053322 0.2868,-1.996908 0.2868,-0.943609 0.8604,-1.733589 0.58423,-0.789992 1.39152,-1.360534 0.81792,-0.581518 1.93326,-0.899705 1.12595,-0.329163 2.43248,-0.329163 2.0501,0 3.83464,0.64735 1.78455,0.636386 2.97424,1.788435 l -0.6161,0.471804 q -1.08347,-1.00943 -2.70867,-1.558032 -1.62521,-0.559566 -3.48411,-0.559566 -1.45523,0 -2.63431,0.438877 -1.16845,0.427912 -1.93326,1.184987 -0.75418,0.757064 -1.16844,1.755519 -0.40364,0.998454 -0.40364,2.150525 0,1.547044 0.60546,2.786889 0.60547,1.239842 1.84827,1.996912 1.24281,0.7461 2.94237,0.7461 z"
         style="font-size:19.7612px;font-family:Monoton;-inkscape-font-specification:Monoton;stroke-width:0.138186"
         id="path576" /></g><g
       id="SVGRepo_tracerCarrier"
       stroke-linecap="round"
       stroke-linejoin="round"
       transform="matrix(0.26458333,0,0,0.26458333,105.10949,24.316839)"
       style="fill:#000000;stroke:#000000" /></g></svg>
