<?xml version="1.0" encoding="UTF-8" standalone="no"?>
<!-- Created with Inkscape (http://www.inkscape.org/) -->

<svg
   width="283.4639mm"
   height="49.229027mm"
   viewBox="0 0 283.4639 49.229027"
   version="1.1"
   id="svg5"
   xml:space="preserve"
   inkscape:version="1.2 (dc2aedaf03, 2022-05-15)"
   sodipodi:docname="logo.svg"
   xmlns:inkscape="http://www.inkscape.org/namespaces/inkscape"
   xmlns:sodipodi="http://sodipodi.sourceforge.net/DTD/sodipodi-0.dtd"
   xmlns="http://www.w3.org/2000/svg"
   xmlns:svg="http://www.w3.org/2000/svg"><sodipodi:namedview
     id="namedview7"
     pagecolor="#ffffff"
     bordercolor="#000000"
     borderopacity="0.25"
     inkscape:showpageshadow="2"
     inkscape:pageopacity="0.0"
     inkscape:pagecheckerboard="0"
     inkscape:deskcolor="#d1d1d1"
     inkscape:document-units="mm"
     showgrid="false"
     showguides="true"
     inkscape:zoom="1.0544998"
     inkscape:cx="515.88442"
     inkscape:cy="107.15981"
     inkscape:window-width="1920"
     inkscape:window-height="1017"
     inkscape:window-x="1912"
     inkscape:window-y="-8"
     inkscape:window-maximized="1"
     inkscape:current-layer="layer1" /><defs
     id="defs2" /><g
     inkscape:label="Layer 1"
     inkscape:groupmode="layer"
     id="layer1"
     transform="translate(-7.2750921,-74.820013)"><g
       id="g1207"
       transform="matrix(1.1188415,0,0,1.1188415,-27.252942,-32.192082)"><rect
         style="fill:#ffffff;stroke-width:0.293055"
         id="rect184"
         width="253.35484"
         height="44"
         x="30.860523"
         y="95.645447" /><g
         id="g1183"
         transform="translate(2.1618738,-2.3651613)"><g
           id="SVGRepo_bgCarrier"
           stroke-width="0"
           transform="matrix(0.07961847,0,0,0.07961847,202.1694,111.34039)"
           style="fill:#e6e6e6;stroke:#000000;stroke-width:0;stroke-dasharray:none"><g
             id="g594"
             style="fill:#e6e6e6;stroke-width:0;stroke-dasharray:none"><rect
               x="-26"
               y="-26"
               width="312"
               height="312"
               rx="156"
               fill="#7ed0ec"
               strokewidth="0"
               id="rect526"
               style="fill:#e6e6e6;stroke-width:0;stroke-dasharray:none" /></g></g><g
           id="SVGRepo_iconCarrier"
           transform="matrix(0.07961847,0,0,0.07961847,202.1694,111.34039)"
           style="fill:#ffffff;stroke:#000000;stroke-width:0;stroke-dasharray:none"> <path
   d="m 255.413,147.195 c -5.044,-2.812 -15.403,-9.266 -23.638,-16.198 8.415,-5.436 18.043,-10.489 20.078,-11.392 2.528,-1.122 3.668,-4.081 2.547,-6.609 -1.123,-2.529 -4.081,-3.67 -6.609,-2.547 -3.014,1.338 -17.239,8.867 -26.895,15.837 H 203.68 c -5.669,0 -11.276,-1.181 -16.463,-3.468 -14.435,-6.365 -23.085,-21.346 -21.379,-37.03 0.626,-5.76 2.483,-11.318 5.444,-16.298 l 5.704,-9.594 c 14.034,-1.87 27.56,-7.069 39.22,-15.105 2.187,-1.507 3.064,-4.438 1.751,-6.748 -1.476,-2.596 -4.82,-3.314 -7.217,-1.651 -6,4.165 -15.134,9.22 -26.952,12.064 l 8.453,-14.217 c 1.337,-2.248 0.891,-5.234 -1.218,-6.782 -2.419,-1.775 -5.779,-1.048 -7.278,1.471 l -21.544,36.233 c -2.826,4.753 -6.582,8.886 -11.044,12.152 -12.729,9.318 -30.028,9.318 -42.757,0 -4.61,-3.375 -8.446,-7.697 -11.248,-12.677 L 86.467,45.651 C 88.342,34.01 85.874,13.511 83.586,5.675 82.83,3.088 80.2,1.388 77.577,2.008 c -2.835,0.67 -4.479,3.575 -3.651,6.322 1.982,6.574 3.743,22.643 3.016,32.538 -7.472,-2.106 -14.741,-5.206 -19.164,-8.224 -2.13,-1.453 -5.075,-1.237 -6.769,0.707 -1.997,2.293 -1.517,5.741 0.913,7.423 6,4.154 19.198,9.099 26.341,10.724 l 10.362,18.411 c 2.755,4.894 4.488,10.297 5.096,15.88 v 0 c 1.706,15.683 -6.944,30.665 -21.379,37.03 -5.187,2.287 -10.794,3.468 -16.463,3.468 H 43.376 C 34.993,114.301 32.277,110.191 32.25,110.149 c -1.523,-2.309 -4.628,-2.949 -6.938,-1.427 -2.31,1.522 -2.949,4.627 -1.428,6.936 0.095,0.144 1.931,2.924 7.281,10.628 H 7.224 c -2.616,0 -4.952,1.912 -5.2,4.517 -0.285,2.987 2.056,5.5 4.985,5.5 h 22.769 c -5.411,5.665 -12.411,12.135 -18.617,16.614 -1.999,1.443 -2.609,4.147 -1.37,6.279 l 0.093,0.16 c 1.508,2.597 4.89,3.312 7.291,1.566 9.494,-6.904 20.299,-17.645 26.014,-24.619 h 12.703 c 5.665,0 11.269,1.18 16.452,3.466 14.434,6.364 23.084,21.345 21.378,37.028 v 0 c -0.609,5.598 -2.342,11.016 -5.096,15.929 l -9.924,17.7 c -16.216,2.254 -31.256,11.813 -31.922,12.241 -2.327,1.496 -2.958,4.567 -1.506,6.921 1.883,3.054 5.574,2.321 6.921,1.506 0.781,-0.472 9.107,-5.791 19.967,-9.002 l -1.946,3.581 c -1.32,2.38 -0.5,5.379 1.847,6.757 v 0 c 2.425,1.424 5.547,0.575 6.917,-1.881 l 7.215,-13.006 c 0,0 0,0 0,0 l 10.998,-19.617 c 2.787,-4.971 6.61,-9.287 11.208,-12.653 12.729,-9.319 30.028,-9.319 42.757,0 5.314,3.89 9.633,8.98 12.607,14.855 l 15.312,30.251 c 1.252,2.467 4.267,3.451 6.733,2.199 2.466,-1.252 3.451,-4.266 2.199,-6.733 l -8.87,-17.583 c 7.174,1.609 16.973,4.753 24.166,10.444 2.274,1.799 5.543,0.929 7.04,-0.775 1.825,-2.079 1.384,-5.311 -0.775,-7.04 -12.063,-9.671 -29.382,-12.922 -36.132,-13.862 l -3.826,-7.537 c -2.014,-3.969 -3.293,-8.27 -3.775,-12.694 -1.706,-15.683 6.943,-30.664 21.378,-37.028 v 0 c 5.184,-2.286 10.787,-3.466 16.453,-3.466 h 18.958 c 9.23,8.339 22.01,16.333 27.908,19.641 2.37,1.329 5.57,0.216 6.814,-1.936 1.385,-2.395 0.481,-5.467 -1.935,-6.814 z m -142.328,-1.988 c -9.22,0 -16.695,-6.229 -16.695,-13.912 0,-7.683 7.474,-13.912 16.695,-13.912 9.22,0 16.695,6.229 16.695,13.912 0,7.683 -7.475,13.912 -16.695,13.912 z"
   id="path530"
   style="fill:#ffffff;stroke-width:0;stroke-dasharray:none" /> </g><text
           xml:space="preserve"
           style="font-size:8.22737px;font-family:Rubik;-inkscape-font-specification:Rubik;fill:#000000;stroke-width:0.308526"
           x="36.931946"
           y="129.34128"
           id="text398"
           transform="scale(1.1660836,0.85757147)"><tspan
             sodipodi:role="line"
             id="tspan396"
             x="36.931946"
             y="129.34128"
             style="font-size:8.22737px;fill:#000000;stroke-width:0.308526">Ubiquitous</tspan></text><path
           d="m 54.958243,121.37905 -0.683567,-1.16698 v -7.25688 h 0.683567 z m 1.367133,2.31436 -0.683566,-1.18659 v -9.55163 h 0.683566 z m 1.367133,2.34378 -0.683567,-1.1964 v -11.8856 h 0.683567 z m -9.797787,-5.26615 0.683566,1.167 v 7.25687 h -0.683566 z m -1.367134,-2.31435 0.683567,1.18659 v 9.55163 h -0.683567 z m -1.367133,-2.34377 0.683567,1.1964 v 11.88559 h -0.683567 z m 0.23735,-3.15773 h 0.797494 l 9.664872,16.23972 h -0.797495 z m 1.613977,0 h 0.806987 l 9.655378,16.23972 h -0.816482 z m 1.604482,0 h 0.797494 l 8.962318,15.09236 v -15.09236 h 0.683566 v 16.23972 q 0,0 -0.806988,0 z m -4.139376,1.14737 v 15.09235 h -0.683566 v -16.23972 q 0,0 0.816483,0 l 9.636389,16.23972 h -0.788 z"
           style="font-size:19.7612px;font-family:Monoton;-inkscape-font-specification:Monoton;stroke-width:0.123508"
           id="path550" /><path
           d="m 64.281331,129.19491 h -0.683566 v -16.23972 h 0.683566 z m -1.367133,0 h -0.683566 v -16.23972 h 0.683566 z m -1.367133,0 h -0.683567 v -16.23972 h 0.683567 z m 4.101399,-3.53038 h 7.272389 v 0.70608 h -7.272389 v 0.70608 h 7.272389 v 0.70607 h -7.272389 v 0.70608 h 7.272389 v 0.70607 h -7.955956 v -16.23972 h 7.955956 v 0.70607 h -7.272389 v 0.70608 h 7.272389 v 0.70607 h -7.272389 v 0.70608 h 7.272389 v 0.70607 h -7.272389 v 2.82431 h 3.731134 v 0.70607 h -3.731134 v 0.70608 h 3.731134 v 0.70607 h -3.731134 v 0.70608 h 3.731134 v 0.70607 h -3.731134 z"
           style="font-size:19.7612px;font-family:Monoton;-inkscape-font-specification:Monoton;stroke-width:0.123508"
           id="path552" /><path
           d="m 85.671269,122.05571 v -9.10052 h 0.683566 v 9.10052 q 0,1.49061 -1.139277,2.54972 -1.139277,1.0591 -2.734266,1.0591 -1.594989,0 -2.734267,-1.0591 -1.139278,-1.05911 -1.139278,-2.54972 v -9.10052 h 0.683567 v 9.10052 q 0,1.1964 0.93041,2.04958 0.939905,0.85317 2.259568,0.85317 1.319663,0 2.250073,-0.85317 0.939904,-0.85318 0.939904,-2.04958 z m 1.367133,0 v -9.10052 h 0.683567 v 9.10052 q 0,1.01988 -0.417735,1.95151 -0.417735,0.92183 -1.12029,1.59848 -0.702555,0.67665 -1.67094,1.07872 -0.968386,0.39227 -2.031712,0.39227 -1.063326,0 -2.031712,-0.39227 -0.968386,-0.40207 -1.67094,-1.07872 -0.702555,-0.67665 -1.12029,-1.59848 -0.417735,-0.93163 -0.417735,-1.95151 v -9.10052 h 0.683566 v 9.10052 q 0,1.16699 0.607615,2.16726 0.617109,0.99047 1.661446,1.56905 1.053832,0.57859 2.28805,0.57859 1.234217,0 2.278555,-0.57859 1.053832,-0.57858 1.661447,-1.56905 0.617108,-1.00027 0.617108,-2.16726 z m 1.367134,0 v -9.10052 h 0.683566 v 9.10052 q 0,1.30427 -0.531663,2.50068 -0.522168,1.18661 -1.405109,2.04958 -0.88294,0.86298 -2.107664,1.37292 -1.224723,0.50995 -2.563374,0.50995 -1.338651,0 -2.563375,-0.50995 -1.224723,-0.50994 -2.107664,-1.37292 -0.88294,-0.86297 -1.414603,-2.04958 -0.522168,-1.19641 -0.522168,-2.50068 v -9.10052 h 0.683566 v 9.10052 q 0,1.54944 0.797494,2.87334 0.797494,1.31408 2.155134,2.0888 1.367133,0.76491 2.971616,0.76491 1.604482,0 2.962121,-0.76491 1.367134,-0.77472 2.164628,-2.0888 0.797495,-1.3239 0.797495,-2.87334 z m 1.367133,0 v -9.10052 h 0.683567 v 9.10052 q 0,2.11822 -1.072821,3.93244 -1.07282,1.80442 -2.914651,2.86354 -1.832339,1.0493 -3.987472,1.0493 -2.155133,0 -3.996966,-1.0493 -1.832338,-1.05912 -2.905158,-2.86354 -1.07282,-1.81422 -1.07282,-3.93244 v -9.10052 h 0.683567 v 9.10052 q 0,1.44157 0.579132,2.76546 0.579134,1.3239 1.557013,2.28494 0.977881,0.95124 2.326026,1.52002 1.357638,0.56878 2.829206,0.56878 1.471567,0 2.819712,-0.56878 1.357639,-0.56878 2.335519,-1.52002 0.97788,-0.96104 1.557012,-2.28494 0.579134,-1.32389 0.579134,-2.76546 z"
           style="font-size:19.7612px;font-family:Monoton;-inkscape-font-specification:Monoton;stroke-width:0.123508"
           id="path554" /><path
           d="m 97.367853,121.11428 h 4.120387 q 0.93991,0 1.5855,-0.62763 0.65508,-0.62762 0.65508,-1.78479 0,-0.85318 -0.68357,-1.52984 -0.68357,-0.68646 -1.55701,-0.68646 h -5.867279 v 12.70935 h -0.683567 v -13.41542 h 6.550846 q 1.15826,0 2.0412,0.8924 0.88295,0.88259 0.88295,2.02997 0,1.41215 -0.85446,2.26532 -0.85446,0.85318 -2.06969,0.85318 h -4.120387 z m 0,1.41215 h 4.120387 q 1.48106,0 2.54439,-1.06893 1.06332,-1.07872 1.06332,-2.75564 0,-1.44158 -1.09181,-2.53011 -1.08231,-1.09834 -2.5159,-1.09834 h -7.234413 v 14.1215 h -0.683566 v -14.82757 h 7.917979 q 1.12979,0 2.11715,0.5982 0.99687,0.5982 1.5855,1.60828 0.58863,1.00028 0.58863,2.12804 0,1.9319 -1.2722,3.23618 -1.26269,1.29447 -3.01908,1.29447 h -4.120387 z m 0,1.41215 h 4.120387 q 1.32916,0 2.46844,-0.67666 1.13927,-0.67665 1.82284,-1.88287 0.68357,-1.21602 0.68357,-2.67719 0,-1.3239 -0.68357,-2.48108 -0.67407,-1.16698 -1.82284,-1.86325 -1.14877,-0.69627 -2.46844,-0.69627 h -8.601545 v 15.53365 h -0.683567 v -16.23972 h 9.285112 q 1.49056,0 2.80072,0.79433 1.31017,0.78453 2.07919,2.11823 0.7785,1.32389 0.7785,2.83411 0,1.74556 -0.73103,3.06946 -0.72155,1.32389 -1.96526,2.0692 l 1.76589,5.35439 h -0.72155 l -1.68993,-5.02098 q -0.37976,0.15691 -0.57913,0.21575 l 1.58549,4.80523 h -0.72154 l -1.54752,-4.63852 q -0.0854,0.0196 -0.60761,0.0686 l 1.47156,4.56987 h -0.72154 l -1.45258,-4.55025 h -0.61711 l 1.38613,4.55025 h -0.72155 l -1.395609,-4.55025 h -2.515908 z m -0.379759,5.25633 h -0.683567 v -12.00327 h 5.183713 q 0.6361,0 1.09181,0.4511 0.4652,0.4413 0.4652,1.05912 0,1.70634 -1.55701,1.70634 h -4.120387 v -0.70607 h 4.120387 q 0.40824,0 0.6361,-0.21575 0.23734,-0.22555 0.23734,-0.78452 0,-0.34324 -0.25633,-0.56879 -0.24685,-0.23535 -0.61711,-0.23535 h -4.500146 z"
           style="font-size:19.7612px;font-family:Monoton;-inkscape-font-specification:Monoton;stroke-width:0.123508"
           id="path556" /><path
           d="m 115.39692,124.42891 0.27533,-0.70608 h 2.33552 l 0.27533,0.70608 z m -0.53166,1.41215 0.26583,-0.70607 h 3.40834 l 0.29431,0.70607 z m -0.53166,1.41215 0.26583,-0.70607 h 4.48116 l 0.28482,0.70607 z m -5.55397,1.9417 h -0.74054 l 6.21856,-16.23972 h 0.74053 l 6.20906,16.23972 h -0.73104 l -5.84829,-15.28848 z m 5.93372,-13.61155 0.38926,0.9022 -4.86092,12.70935 h -0.73103 z m 0.75953,1.86325 0.36077,0.97086 -4.1109,10.77744 h -0.74052 z m 0.72154,1.94171 0.36077,0.99046 -3.37036,8.81613 h -0.73104 z m 9.42752,9.80659 h -0.74053 l -6.20906,-16.23972 h 0.73103 z m -7.69013,-16.23972 6.21856,16.23972 h -0.73103 l -6.21856,-16.23972 z m -1.47155,0 6.21855,16.23972 h -0.74053 l -6.20907,-16.23972 z"
           style="font-size:19.7612px;font-family:Monoton;-inkscape-font-specification:Monoton;stroke-width:0.123508"
           id="path558" /><path
           d="m 126.81817,112.95519 h 0.68357 v 16.23972 h -0.68357 z m 4.1014,0 h 0.68357 v 12.70934 h 5.46854 v 0.70608 h -5.46854 v 0.70608 h 5.46854 v 0.70607 h -5.46854 v 0.70608 h 5.46854 v 0.70607 h -6.15211 z m -1.36713,0 h 0.68357 v 16.23972 h -0.68357 z m -1.36713,0 h 0.68356 v 16.23972 h -0.68356 z"
           style="font-size:19.7612px;font-family:Monoton;-inkscape-font-specification:Monoton;stroke-width:0.123508"
           id="path560" /><path
           d="m 151.8538,121.37905 -0.68356,-1.16698 v -7.25688 h 0.68356 z m 1.36714,2.31436 -0.68357,-1.18659 v -9.55163 h 0.68357 z m 1.36713,2.34378 -0.68356,-1.1964 v -11.8856 h 0.68356 z m -9.79778,-5.26615 0.68356,1.167 v 7.25687 h -0.68356 z m -1.36714,-2.31435 0.68357,1.18659 v 9.55163 h -0.68357 z m -1.36713,-2.34377 0.68357,1.1964 v 11.88559 h -0.68357 z m 0.23735,-3.15773 h 0.7975 l 9.66487,16.23972 h -0.7975 z m 1.61398,0 h 0.80699 l 9.65538,16.23972 h -0.81649 z m 1.60448,0 h 0.79749 l 8.96232,15.09236 v -15.09236 h 0.68357 v 16.23972 q 0,0 -0.80699,0 z m -4.13938,1.14737 v 15.09235 h -0.68356 v -16.23972 q 0,0 0.81648,0 l 9.63639,16.23972 h -0.788 z"
           style="font-size:19.7612px;font-family:Monoton;-inkscape-font-specification:Monoton;stroke-width:0.123508"
           id="path562" /><path
           d="m 161.17689,129.19491 h -0.68356 v -16.23972 h 0.68356 z m -1.36713,0 h -0.68357 v -16.23972 h 0.68357 z m -1.36714,0 h -0.68356 v -16.23972 h 0.68356 z m 4.10141,-3.53038 h 7.27238 v 0.70608 h -7.27238 v 0.70608 h 7.27238 v 0.70607 h -7.27238 v 0.70608 h 7.27238 v 0.70607 h -7.95595 v -16.23972 h 7.95595 v 0.70607 h -7.27238 v 0.70608 h 7.27238 v 0.70607 h -7.27238 v 0.70608 h 7.27238 v 0.70607 h -7.27238 v 2.82431 h 3.73112 v 0.70607 h -3.73112 v 0.70608 h 3.73112 v 0.70607 h -3.73112 v 0.70608 h 3.73112 v 0.70607 h -3.73112 z"
           style="font-size:19.7612px;font-family:Monoton;-inkscape-font-specification:Monoton;stroke-width:0.123508"
           id="path564" /><path
           d="m 171.19304,113.66126 v -0.70607 h 10.25351 v 0.70607 z m 0,1.41215 v -0.70607 h 10.25351 v 0.70607 z m 0,1.41215 v -0.70607 h 10.25351 v 0.70607 h -2.73427 v 12.70935 h -0.68357 v -12.70935 h -0.68357 v 12.70935 h -0.68356 v -12.70935 h -0.68357 v 12.70935 h -0.68357 v -12.70935 h -0.68356 v 12.70935 h -0.68357 v -12.70935 z"
           style="font-size:19.7612px;font-family:Monoton;-inkscape-font-specification:Monoton;stroke-width:0.123508"
           id="path566" /><path
           d="m 187.49421,124.20336 -0.3228,1.39253 -3.24694,-12.6407 h 0.70256 z m 0.71204,-2.71643 -0.35127,1.35331 -2.5159,-9.88505 h 0.69306 z m 0.71206,-2.8145 -0.36077,1.37292 -1.81336,-7.09016 h 0.71205 z m 2.70578,10.52248 h -0.71204 l 4.15836,-16.22011 -0.01,-0.0196 h 0.72154 v 0.0196 l 1.85132,6.59003 1.69943,-6.60964 h 0.71205 l -4.16785,16.23972 h -0.7119 l -1.86082,-6.58022 z m -1.42409,0 h -0.70256 l 4.15836,-16.23972 h 0.70256 z m -1.41461,0 h -0.70255 l 4.16786,-16.23972 h 0.69306 z m 11.34531,0 h -0.71205 l 4.15836,-16.23972 h 0.71205 z m -1.4241,0 h -0.70255 l 4.15836,-16.23972 h 0.70256 z m -1.4146,0 h -0.70256 l 4.16786,-16.23972 h 0.69306 z m -10.27249,-1.39253 3.80708,-14.84719 h 0.71205 l -4.16785,16.23972 h -0.71205 l -4.15836,-16.23972 h 0.71205 z m 6.64578,-6.57042 1.84184,6.62926 0.36077,-1.40234 -1.85132,-6.60966 z m 0.70256,-2.76547 1.85133,6.60965 0.36077,-1.38273 -1.85133,-6.61945 z m 0.70256,-2.74585 1.86082,6.60966 0.35127,-1.39254 -1.84183,-6.62926 z"
           style="font-size:19.7612px;font-family:Monoton;-inkscape-font-specification:Monoton;stroke-width:0.123508"
           id="path568" /><path
           d="m 227.90059,121.11428 h 4.12038 q 0.93991,0 1.5855,-0.62763 0.65508,-0.62762 0.65508,-1.78479 0,-0.85318 -0.68357,-1.52984 -0.68356,-0.68646 -1.55701,-0.68646 h -5.86727 v 12.70935 h -0.68357 v -13.41542 h 6.55084 q 1.15827,0 2.04121,0.8924 0.88294,0.88259 0.88294,2.02997 0,1.41215 -0.85446,2.26532 -0.85445,0.85318 -2.06969,0.85318 h -4.12038 z m 0,1.41215 h 4.12038 q 1.48106,0 2.54439,-1.06893 1.06332,-1.07872 1.06332,-2.75564 0,-1.44158 -1.09181,-2.53011 -1.0823,-1.09834 -2.5159,-1.09834 h -7.23441 v 14.1215 H 224.103 v -14.82757 h 7.91797 q 1.12979,0 2.11717,0.5982 0.99686,0.5982 1.58548,1.60828 0.58863,1.00028 0.58863,2.12804 0,1.9319 -1.27219,3.23618 -1.2627,1.29447 -3.01909,1.29447 h -4.12038 z m 0,1.41215 h 4.12038 q 1.32916,0 2.46844,-0.67666 1.13927,-0.67665 1.82284,-1.88287 0.68357,-1.21602 0.68357,-2.67719 0,-1.3239 -0.68357,-2.48108 -0.67407,-1.16698 -1.82284,-1.86325 -1.14877,-0.69627 -2.46844,-0.69627 h -8.60154 v 15.53365 h -0.68357 v -16.23972 h 9.28511 q 1.49056,0 2.80073,0.79433 1.31017,0.78453 2.07918,2.11823 0.77851,1.32389 0.77851,2.83411 0,1.74556 -0.73104,3.06946 -0.72154,1.32389 -1.96525,2.0692 l 1.76588,5.35439 h -0.72155 l -1.68992,-5.02098 q -0.37977,0.15691 -0.57914,0.21575 l 1.5855,4.80523 h -0.72154 l -1.54753,-4.63852 q -0.0854,0.0196 -0.60761,0.0686 l 1.47157,4.56987 h -0.72154 l -1.45258,-4.55025 h -0.61712 l 1.38613,4.55025 h -0.72155 l -1.39561,-4.55025 h -2.5159 z m -0.37976,5.25633 h -0.68357 v -12.00327 h 5.18371 q 0.6361,0 1.09181,0.4511 0.4652,0.4413 0.4652,1.05912 0,1.70634 -1.55701,1.70634 h -4.12038 v -0.70607 h 4.12038 q 0.40824,0 0.6361,-0.21575 0.23735,-0.22555 0.23735,-0.78452 0,-0.34324 -0.25634,-0.56879 -0.24684,-0.23535 -0.61711,-0.23535 h -4.50014 z"
           style="font-size:19.7612px;font-family:Monoton;-inkscape-font-specification:Monoton;stroke-width:0.123508"
           id="path572" /><path
           d="m 243.92642,129.19491 h -0.68357 v -16.23972 h 0.68357 z m -1.36714,0 h -0.68356 v -16.23972 h 0.68356 z m -1.36712,0 h -0.68357 v -16.23972 h 0.68357 z m -1.36713,0 h -0.68357 v -16.23972 h 0.68357 z m 9.09522,-8.11986 4.01596,-8.11986 h 0.75952 l -4.01596,8.11986 4.01596,8.11986 h -0.75952 z m -1.52852,0 4.01594,-8.11986 h 0.75953 l -4.01596,8.11986 4.01596,8.11986 h -0.75953 z m -1.52854,0 4.01595,-8.11986 h 0.75952 l -4.01595,8.11986 4.01595,8.11986 h -0.75952 z m -1.53803,0 4.02546,-8.11986 h 0.75951 l -4.02545,8.11986 4.02545,8.11986 h -0.75951 z"
           style="font-size:19.7612px;font-family:Monoton;-inkscape-font-specification:Monoton;stroke-width:0.123508"
           id="path574" /><path
           d="m 261.35737,119.30987 h -1.14877 q -0.73103,0 -1.05383,-0.38246 -0.3228,-0.39227 -0.3228,-1.02969 0,-1.41216 2.0412,-1.41216 1.9178,0 2.88618,0.5884 l -0.55066,0.43149 q -0.66457,-0.31381 -2.33552,-0.31381 -0.81647,0 -1.10129,0.18632 -0.27533,0.18633 -0.27533,0.51976 0,0.33341 0.15191,0.51975 0.15189,0.18632 0.56014,0.18632 h 1.17725 q 1.28169,0 2.30704,0.4511 1.03485,0.45111 1.69942,1.23563 0.66458,0.77472 1.01585,1.79461 0.35129,1.01008 0.35129,2.16725 0,0.94144 -0.25635,1.78481 -0.25633,0.84336 -0.7785,1.54944 -0.51267,0.70607 -1.24371,1.22583 -0.72154,0.50994 -1.7279,0.79433 -0.99687,0.2942 -2.16463,0.2942 -1.83234,0 -3.43682,-0.57859 -1.59499,-0.56878 -2.65832,-1.59847 l 0.55065,-0.42169 q 0.96839,0.90221 2.42097,1.40234 1.46207,0.49033 3.12352,0.49033 1.30068,0 2.34501,-0.38245 1.05383,-0.39227 1.7279,-1.06892 0.68357,-0.67666 1.04435,-1.56906 0.37026,-0.8924 0.37026,-1.9221 0,-1.36311 -0.53167,-2.46145 -0.53165,-1.10814 -1.62346,-1.7946 -1.08232,-0.68646 -2.56338,-0.68646 z m -1.14877,0.70607 h 1.08231 q 1.92728,0 3.00959,1.21602 1.09181,1.21601 1.09181,3.02042 0,1.83384 -1.2627,3.04005 -1.26269,1.19641 -3.54125,1.19641 -1.51904,0 -2.83871,-0.43149 -1.31966,-0.43149 -2.1931,-1.21602 l 0.53166,-0.4413 q 0.7785,0.65705 1.95576,1.01989 1.18675,0.36284 2.54439,0.36284 2.00323,0 3.05706,-0.99046 1.06333,-0.99047 1.06333,-2.53992 0,-1.52982 -0.89244,-2.53009 -0.88294,-1.00027 -2.53489,-1.00027 h -1.07282 q -1.38613,0 -2.07919,-0.78454 -0.69305,-0.78453 -0.69305,-2.03976 0,-1.25525 0.85446,-2.03978 0.86395,-0.78453 2.58235,-0.78453 1.20574,0 2.24058,0.2942 1.03485,0.28439 1.70893,0.82376 l -0.54117,0.43148 q -1.18675,-0.84336 -3.40834,-0.84336 -1.43358,0 -2.09816,0.58839 -0.65508,0.57859 -0.65508,1.52984 0,0.96104 0.48419,1.53962 0.49369,0.5786 1.60448,0.5786 z m 0,1.41215 h 1.04433 q 1.38613,0 2.07919,0.79434 0.69306,0.79433 0.69306,2.02995 0,1.25525 -0.86395,2.03978 -0.85446,0.78453 -2.57287,0.78453 -1.20573,0 -2.25008,-0.28439 -1.03484,-0.2942 -1.70891,-0.83356 l 0.54115,-0.43149 q 1.18675,0.84336 3.41784,0.84336 1.43358,0 2.08868,-0.57859 0.66457,-0.58839 0.66457,-1.53964 0,-0.95123 -0.49368,-1.52982 -0.49369,-0.58839 -1.60449,-0.58839 h -1.03484 q -1.94627,0 -3.04757,-1.19641 -1.0918,-1.20621 -1.0918,-3.04004 0,-1.83384 1.2627,-3.03025 1.2627,-1.20621 3.54124,-1.20621 1.51905,0 2.82921,0.4315 1.31967,0.43148 2.19312,1.21602 l -0.53167,0.44129 q -0.77851,-0.65704 -1.95576,-1.01989 -1.17726,-0.36284 -2.5349,-0.36284 -2.00322,0 -3.06655,0.99046 -1.05383,0.99047 -1.05383,2.53992 0,1.53962 0.89243,2.5399 0.89244,0.99047 2.56338,0.99047 z m 0,1.41215 h 1.04433 q 0.73104,0 1.05384,0.39227 0.32279,0.39226 0.32279,1.01987 0,1.41215 -2.0412,1.41215 -1.92728,0 -2.89567,-0.58839 l 0.55065,-0.43148 q 0.66458,0.3138 2.34502,0.3138 0.81648,0 1.09181,-0.18632 0.28481,-0.18633 0.28481,-0.51976 0,-0.32361 -0.16139,-0.50993 -0.15191,-0.19613 -0.56964,-0.19613 h -1.02535 q -1.31017,0 -2.37349,-0.4413 -1.05384,-0.4413 -1.73741,-1.21602 -0.67407,-0.77472 -1.03484,-1.79461 -0.36077,-1.01989 -0.36077,-2.19667 0,-0.94144 0.25634,-1.7848 0.25633,-0.84338 0.76901,-1.54945 0.52217,-0.70608 1.24371,-1.21602 0.73104,-0.51975 1.72791,-0.80414 1.00636,-0.2942 2.17411,-0.2942 1.83234,0 3.42733,0.57859 1.595,0.56879 2.65832,1.59847 l -0.55066,0.42169 q -0.96838,-0.90221 -2.42096,-1.39254 -1.45258,-0.50013 -3.11403,-0.50013 -1.30066,0 -2.3545,0.39226 -1.04434,0.38246 -1.72791,1.05912 -0.67407,0.67665 -1.04433,1.56905 -0.36077,0.8924 -0.36077,1.9221 0,1.38272 0.54115,2.49087 0.54116,1.10815 1.65195,1.7848 1.1108,0.66685 2.62984,0.66685 z"
           style="font-size:19.7612px;font-family:Monoton;-inkscape-font-specification:Monoton;stroke-width:0.123508"
           id="path576" /></g></g><g
       id="SVGRepo_tracerCarrier"
       stroke-linecap="round"
       stroke-linejoin="round"
       transform="matrix(0.26458333,0,0,0.26458333,105.10949,24.316839)"
       style="fill:#000000;stroke:#000000" /></g></svg>
